<svg xmlns="http://www.w3.org/2000/svg" viewBox="0 0 32 32">
<title>live</title>
<g data-name="Layer 3" fill="#ffffff">
<path d="M27.06 7H4.94A2.94 2.94 0 0 0 2 9.94v12.12A2.94 2.94 0 0 0 4.94 25h22.12A2.94 2.94 0 0 0 30 22.06V9.94A2.94 2.94 0 0 0 27.06 7M28 22.06a.94.94 0 0 1-.94.94H4.94a.94.94 0 0 1-.94-.94V9.94A.94.94 0 0 1 4.94 9h22.12a.94.94 0 0 1 .94.94Z"/>
<path d="M8.95 18.32H7.13v-5.58a1 1 0 0 0-2 0v6.58a1 1 0 0 0 1 1h2.82a1 1 0 0 0 0-2M11.77 11.74a1 1 0 0 0-1 1v6.58a1 1 0 0 0 2 0v-6.58a1 1 0 0 0-1-1M20.55 11.75a1 1 0 0 0-1.3.55l-1.76 4.31-1.77-4.31a1 1 0 1 0-1.85.76l2.69 6.58a1 1 0 0 0 1.85 0l2.69-6.58a1 1 0 0 0-.55-1.31M25.88 13.74a1 1 0 0 0 0-2h-2.83a1 1 0 0 0-1 1v6.58a1 1 0 0 0 1 1h2.82a1 1 0 0 0 0-2h-1.82V17h1.82a1 1 0 0 0 0-2h-1.82v-1.26Z"/>
</g>
</svg>
