<svg xmlns="http://www.w3.org/2000/svg" viewBox="0 0 24 28">

  <!-- RADAR -->
  <g transform="translate(4,0)" fill="white">
    <path d="M14.4 5.6 13 7.1c1.3 1.3 2 3.1 2 4.9s-.7 3.6-2.1 5l1.4 1.4c1.7-1.7 2.6-4 2.6-6.4s-.8-4.7-2.5-6.4"/>
    <path d="M3.1 7 1.6 5.6C-.1 7.3-1 9.6-1 12s.9 4.7 2.6 6.4L3 16.9c-1.3-1.3-2-3.1-2-4.9s.7-3.6 2.1-5"/>
    <path d="m11.5 8.5-1.4 1.4q.9.9.9 2.1t-.9 2.1l1.4 1.4c1-1 1.5-2.2 1.5-3.5s-.5-2.6-1.5-3.5"/>
    <path d="M4.5 8.5C3.5 9.4 3 10.6 3 12s.5 2.6 1.5 3.5l1.4-1.4Q5 13.2 5 12t.9-2.1z"/>
  </g>

  <!-- RED LIVE DOT -->
  <circle cx="16" cy="12" r="2.2" fill="#ff2b2b"/>

  <!-- LIVE BADGE -->
  <g transform="translate(4,22)" stroke="white" stroke-width="2" fill="none">
    <rect x="0" y="0" width="24" height="8" rx="2"/>
  </g>

  <text x="16" y="28" text-anchor="middle" fill="white"
        font-size="5.5" font-family="Arial, sans-serif" font-weight="bold">
    LIVE
  </text>

</svg>
