<svg xmlns="http://www.w3.org/2000/svg" viewBox="0 0 122.88 107.09">
<path fill="currentColor" d="M63.08 0h.07C79.93.55 95 6.51 105.75 15.74c11 9.39 17.52 22.16 17.11 36.09a42.67 42.67 0 0 1-7.58 22.87A55 55 0 0 1 95.78 92a73.3 73.3 0 0 1-28.52 8.68 62.2 62.2 0 0 1-27-3.63L6.72 107.09 16.28 83A49.1 49.1 0 0 1 5.37 70 40.16 40.16 0 0 1 .24 45.55a44.84 44.84 0 0 1 9.7-23A55.6 55.6 0 0 1 26.19 8.83 67 67 0 0 1 43.75 2a74.3 74.3 0 0 1 19.32-2Zm24.18 42a7.78 7.78 0 1 1-7.77 7.78A7.78 7.78 0 0 1 87.26 42m-51.39 0a7.78 7.78 0 1 1-7.78 7.78A7.79 7.79 0 0 1 35.87 42m25.69 0a7.78 7.78 0 1 1-7.77 7.78A7.78 7.78 0 0 1 61.56 42"/>
</svg>
